<?xml version="1.0" encoding="UTF-8"?>
<svg width="70px" height="77px" viewBox="0 0 70 77" version="1.1" xmlns="http://www.w3.org/2000/svg" xmlns:xlink="http://www.w3.org/1999/xlink">
  <title>Icons/Sweatshirt</title>
  <g id="Icons" stroke="none" stroke-width="1" fill="none" fill-rule="evenodd">
    <g transform="translate(-103.000000, -795.000000)" id="Attività-all'aperto">
      <g transform="translate(75.000000, 738.000000)">
        <g id="felpa" transform="translate(0.000000, 57.000000)">
          <g id="Icons/Sweatshirt" transform="translate(28.000000, 0.000000)">
            <path d="M63,6.9996 L44.378,6.9996 L44.378,10.9996 L63,10.9996 C64.7,10.9996 66,12.2996 66,13.9996 L66,69.9996 C66,71.6996 64.7,72.9996 63,72.9996 L7,72.9996 C5.3,72.9996 4,71.6996 4,69.9996 L4,13.9996 C4,12.2996 5.3,10.9996 7,10.9996 L25.272,10.9996 L25.272,6.9996 L7,6.9996 C3.1,6.9996 0,10.0996 0,13.9996 L0,69.9996 C0,73.8996 3.1,76.9996 7,76.9996 L63,76.9996 C66.9,76.9996 70,73.8996 70,69.9996 L70,13.9996 C70,10.0996 66.9,6.9996 63,6.9996" id="Fill-1" fill="#7D7384"></path>
            <path d="M15.515,28.741 C16.764,28.121 18.107,27.568 19.52,27.081 C21.62,26.395 23.747,25.865 25.886,25.471 C28.768,24.941 31.674,24.682 34.577,24.678 L34.598,24.678 C37.501,24.682 40.407,24.941 43.288,25.471 C45.428,25.865 47.554,26.395 49.654,27.081 C51.068,27.568 52.411,28.121 53.66,28.741 C53.692,29.177 53.729,29.613 53.729,30.057 C53.729,40.168 45.147,48.394 34.598,48.394 L34.577,48.394 C24.028,48.394 15.445,40.168 15.445,30.057 C15.445,29.613 15.482,29.177 15.515,28.741 M17.345,22.144 C17.412,21.919 17.506,21.681 17.658,21.428 C21.17,15.851 24.766,12.035 28.506,8.506 C29.62,7.455 30.747,6.428 31.889,5.389 L32.847,4.516 C33.23,4.181 33.905,4.013 34.577,4.011 L34.598,4.011 C35.27,4.013 35.945,4.181 36.328,4.516 L37.286,5.389 C38.428,6.428 39.555,7.455 40.669,8.506 C44.409,12.035 48.005,15.851 51.517,21.428 C51.668,21.681 51.763,21.919 51.83,22.144 C51.998,22.712 51.939,23.167 51.787,23.35 C51.663,23.497 51.28,23.421 50.989,23.311 C45.61,21.553 40.098,20.675 34.598,20.672 L34.577,20.672 C29.076,20.675 23.565,21.553 18.185,23.311 C17.895,23.421 17.512,23.497 17.388,23.35 C17.236,23.167 17.176,22.712 17.345,22.144 M57.402,26.332 C57.033,24.222 56.362,22.211 55.425,20.344 C55.285,20.005 55.124,19.667 54.926,19.335 C54.749,19.053 54.57,18.784 54.392,18.511 C54.368,18.474 54.345,18.438 54.321,18.401 C49.63,11.222 44.727,6.752 39.979,2.431 L38.992,1.533 C37.842,0.511 36.22,0 34.598,0 L34.577,0 C32.955,0 31.333,0.511 30.183,1.533 L29.196,2.431 C24.448,6.752 19.545,11.222 14.854,18.401 C14.83,18.438 14.806,18.474 14.783,18.511 C14.605,18.784 14.426,19.053 14.249,19.335 C14.051,19.667 13.89,20.005 13.75,20.344 C12.813,22.211 12.142,24.222 11.773,26.332 C11.562,27.545 11.445,28.788 11.445,30.057 C11.445,30.439 11.456,30.819 11.475,31.196 C11.676,35.031 12.894,38.607 14.857,41.695 C15.591,42.851 16.421,43.943 17.354,44.948 C18.679,46.376 20.192,47.635 21.855,48.693 L21.836,48.723 C28.281,52.811 32.571,60.005 32.571,68.185 L32.577,68.185 L32.577,74.538 L36.577,74.538 L36.577,68.185 L36.582,68.185 C36.582,59.981 40.897,52.77 47.373,48.688 C47.368,48.681 47.363,48.673 47.358,48.665 C47.358,48.665 47.358,48.665 47.358,48.665 C49.005,47.613 50.506,46.365 51.821,44.948 C52.755,43.942 53.586,42.848 54.321,41.69 C56.282,38.603 57.499,35.029 57.7,31.196 C57.719,30.819 57.729,30.439 57.729,30.057 C57.729,28.788 57.613,27.545 57.402,26.332" id="Fill-3" fill="#7D7384"></path>
            <path d="M46.5765,52.2996 C46.5765,58.9266 41.2035,64.2996 34.5765,64.2996 C27.9495,64.2996 22.5765,58.9266 22.5765,52.2996 C22.5765,45.6726 27.9495,40.2996 34.5765,40.2996 C41.2035,40.2996 46.5765,45.6726 46.5765,52.2996" id="Fill-5" fill-opacity="0.8" fill="#E10A0A" style="mix-blend-mode: multiply;"></path>
          </g>
        </g>
      </g>
    </g>
  </g>
</svg>