<?xml version="1.0" encoding="UTF-8"?>
<svg width="77px" height="77px" viewBox="0 0 77 77" version="1.1" xmlns="http://www.w3.org/2000/svg" xmlns:xlink="http://www.w3.org/1999/xlink">
  <title>Icons/Bathrobe</title>
  <g id="Icons" stroke="none" stroke-width="1" fill="none" fill-rule="evenodd">
    <g transform="translate(-286.000000, -361.000000)" id="Attività-in-acqua">
      <g transform="translate(100.000000, 304.000000)">
        <g id="accappatoio" transform="translate(171.000000, 57.000000)">
          <g id="Icons/Bathrobe" transform="translate(15.000000, 0.000000)">
            <path d="M38.5,4 C29.4,4 22,11.4 22,20.5 C22,27.9 28.3,39.1 39.9,51.9 C47.4,39.5 55,26.1 55,20.5 C55,11.4 47.6,4 38.5,4 M29.8,76.9 L26.3,75 C28.7,70.5 32.3,64.6 36,58.4 C36.6,57.4 37.2,56.4 37.8,55.4 C28.6,45.4 18,31.4 18,20.5 C18,9.2 27.2,0 38.5,0 C49.8,0 59,9.2 59,20.5 C59,28.2 49,44.7 39.4,60.6 C35.6,66.7 32.1,72.5 29.8,76.9" id="Fill-1" fill="#7D7384"></path>
            <path d="M66.5,7 L53,7 L53,11 L66.5,11 C68.2,11 69.5,12.3 69.5,14 L69.5,70 C69.5,71.7 68.2,73 66.5,73 L10.5,73 C8.8,73 7.5,71.7 7.5,70 L7.5,14 C7.5,12.3 8.8,11 10.5,11 L24,11 L24,7 L10.5,7 C6.6,7 3.5,10.1 3.5,14 L3.5,70 C3.5,73.9 6.6,77 10.5,77 L66.5,77 C70.4,77 73.5,73.9 73.5,70 L73.5,14 C73.5,10.1 70.4,7 66.5,7" id="Fill-3" fill="#7D7384"></path>
            <path d="M70,66 L7,66 C3.1,66 0,62.9 0,59 C0,55.1 3.1,52 7,52 L70,52 C73.9,52 77,55.1 77,59 C77,62.9 73.9,66 70,66" id="Fill-5" fill-opacity="0.8" fill="#E10A0A" style="mix-blend-mode: multiply;"></path>
          </g>
        </g>
      </g>
    </g>
  </g>
</svg>