<?xml version="1.0" encoding="UTF-8"?>
<svg width="77px" height="77px" viewBox="0 0 77 77" version="1.1" xmlns="http://www.w3.org/2000/svg" xmlns:xlink="http://www.w3.org/1999/xlink">
  <title>Icons/Towel</title>
  <g id="Icons" stroke="none" stroke-width="1" fill="none" fill-rule="evenodd">
    <g transform="translate(-818.000000, -361.000000)" id="Attività-in-acqua">
      <g transform="translate(100.000000, 304.000000)">
        <g id="asciugamano" transform="translate(699.000000, 57.000000)">
          <g id="Icons/Towel" transform="translate(19.000000, 0.000000)">
            <path d="M68,73 L62,73 L26,73 L26,70 L54,70 L54,37 L54,11 C54,7.1 57.1,4 61,4 C64.9,4 68,7.1 68,11 L68,73 Z M8.5,11 C8.5,7.1 11.6,4 15.5,4 L52.5,4 C50.9,5.9 50,8.3 50,11 L50,37 L50,66 L8.5,66 L8.5,11 Z M61,0 L15.5,0 C9.4,0 4.5,4.9 4.5,11 L4.5,70 L22,70 L22,73 L22,77 L26,77 L72,77 L72,11 C72,4.9 67.1,0 61,0 L61,0 Z" id="Fill-1" fill="#7D7384"></path>
            <path d="M71,21 L6,21 C2.7,21 0,18.3 0,15 C0,11.7 2.7,9 6,9 L71,9 C74.3,9 77,11.7 77,15 C77,18.3 74.3,21 71,21" id="Fill-3" fill-opacity="0.8" fill="#E10A0A" style="mix-blend-mode: multiply;"></path>
          </g>
        </g>
      </g>
    </g>
  </g>
</svg>