<?xml version="1.0" encoding="UTF-8"?>
<svg width="47px" height="77px" viewBox="0 0 47 77" version="1.1" xmlns="http://www.w3.org/2000/svg" xmlns:xlink="http://www.w3.org/1999/xlink">
  <title>Icons/Canteen</title>
  <g id="Icons" stroke="none" stroke-width="1" fill="none" fill-rule="evenodd">
    <g transform="translate(-115.000000, -578.000000)" id="Attività-in-palestra">
      <g transform="translate(94.000000, 521.000000)">
        <g id="borraccia" transform="translate(0.000000, 57.000000)">
          <g id="Icons/Canteen" transform="translate(21.000000, 0.000000)">
            <path d="M15.1645299,4.02088773 C11.2478632,4.02088773 8.13461538,7.13707572 8.13461538,11.0574413 L8.13461538,66.0430809 C8.13461538,69.9634465 11.2478632,73.0796345 15.1645299,73.0796345 L31.9358974,73.0796345 C35.8525641,73.0796345 38.965812,69.9634465 38.965812,66.0430809 L38.965812,11.0574413 C38.965812,7.13707572 35.8525641,4.02088773 31.9358974,4.02088773 L15.1645299,4.02088773 Z M31.8354701,77 L15.1645299,77 C9.03846154,77 4.11752137,72.0744125 4.11752137,65.9425587 L4.11752137,11.0574413 C4.11752137,4.92558747 9.03846154,0 15.1645299,0 L31.9358974,0 C38.0619658,0 42.982906,4.92558747 42.982906,11.0574413 L42.982906,66.0430809 C42.8824786,72.0744125 37.9615385,77 31.8354701,77 L31.8354701,77 Z" id="Fill-1" fill="#7D7384"></path>
            <path d="M41.0747863,33.3733681 L5.92521368,33.3733681 C2.61111111,33.3733681 0,30.7597911 0,27.4425587 C0,24.1253264 2.61111111,21.5117493 5.92521368,21.5117493 L41.0747863,21.5117493 C44.3888889,21.5117493 47,24.1253264 47,27.4425587 C47,30.7597911 44.3888889,33.3733681 41.0747863,33.3733681" id="Fill-3" fill-opacity="0.8" fill="#E10A0A" style="mix-blend-mode: multiply;"></path>
          </g>
        </g>
      </g>
    </g>
  </g>
</svg>