<svg width="67" height="76" viewBox="0 0 67 76" xmlns="http://www.w3.org/2000/svg">
    <g fill="none" fill-rule="evenodd">
        <path d="M23.522 6.278c-11.1 11.9-19.3 22.5-19.5 35-.3 14.8 10.9 27.7 25.6 29.4 17.5 2 32.4-11.7 32.4-28.8 0-10.2-5.1-18.7-12.9-28-.7-.8-1.9-.9-2.6-.1-1.6 1.5-3.3 3.2-6 6.1 0 0 0 .1-.1.1-.8.9-2.2.8-2.9-.2l-.1-.1c-2.4-3.6-7.6-9.6-11.4-13.5-.6-.7-1.8-.7-2.5.1m8 68.6c-19.3-.9-33.9-18.6-31.2-37.8 1.8-13.1 11.2-23.9 23-36.4l.1-.1c.7-.7 1.8-.8 2.5-.1l.2.1c2.8 2.5 8.2 8.4 12 13.2.7.9 2 .9 2.8.1 2.4-2.5 4-4 6-5.8l.1-.1c.8-.7 1.9-.6 2.6.2l.1.1c9.8 11.1 16.4 21.1 16.4 33.5-.1 18.8-15.7 33.9-34.6 33.1" fill="#7D7384"/>
        <path d="M.006 17.513c.2-6.4 4.3-11.3 9.7-16.9.7-.8 1.9-.8 2.7-.1l.1.1c.8.7 2.1 2.1 3.4 3.6.7.8 1.9.9 2.7.2.3-.2.5-.4.8-.7.8-.7 2-.6 2.8.2 3.6 4 6.9 8.6 6.9 14.3-.1 8.6-8.1 15.6-17.3 14-7-1.3-12-7.6-11.8-14.7z" style="mix-blend-mode:multiply" transform="translate(37.517 42.765)" fill="#E10A0A" fill-opacity=".8"/>
    </g>
</svg>
