<?xml version="1.0" encoding="UTF-8"?>
<svg width="77px" height="77px" viewBox="0 0 77 77" version="1.1" xmlns="http://www.w3.org/2000/svg" xmlns:xlink="http://www.w3.org/1999/xlink">
  <title>Icons/Socks</title>
  <g id="Icons" stroke="none" stroke-width="1" fill="none" fill-rule="evenodd">
    <g transform="translate(-640.000000, -578.000000)" id="Attività-in-palestra">
      <g transform="translate(94.000000, 521.000000)">
        <g id="Icons/Socks" transform="translate(546.000000, 57.000000)">
          <path d="M73,36.171 C73,39.082 71.817,41.827 69.67,43.899 L50.735,62.175 C48.561,64.273 45.645,65.429 42.523,65.429 C40.138,65.429 37.876,64.75 35.97,63.496 C35.382,63.108 34.825,62.67 34.312,62.175 C33.848,61.728 33.439,61.243 33.069,60.737 C31.731,58.91 31.001,56.736 31.001,54.447 C31.001,51.524 32.176,48.779 34.312,46.718 L44.143,37.229 C44.831,36.566 45.444,35.84 46.018,35.088 C48.508,31.828 49.917,27.83 49.917,23.745 L49.917,7.552 L49.917,4 L73,4 L73,36.171 Z M76.957,0 L45.917,0 L45.917,7.552 L45.898,7.552 L18.917,7.552 L18.917,31.297 C18.917,35.276 17.279,39.091 14.365,41.904 L4.533,51.393 C-1.511,57.227 -1.511,66.773 4.533,72.606 L4.533,72.606 C7.555,75.523 11.539,76.981 15.523,76.981 C19.506,76.981 23.49,75.523 26.512,72.606 L33.028,66.317 C32.504,65.928 31.994,65.516 31.515,65.053 L31.515,65.053 C31.016,64.572 30.574,64.057 30.157,63.529 L23.734,69.728 C21.56,71.826 18.644,72.981 15.523,72.981 C12.401,72.981 9.485,71.826 7.311,69.728 C5.176,67.667 4,64.923 4,62 C4,59.077 5.176,56.332 7.311,54.271 L17.143,44.782 C20.812,41.24 22.917,36.325 22.917,31.297 L22.917,11.552 L45.917,11.552 L45.917,23.745 C45.917,27.723 44.28,31.538 41.365,34.351 L31.534,43.84 C25.989,49.192 25.546,57.661 30.176,63.529 C30.592,64.057 31.035,64.572 31.534,65.053 L31.534,65.053 C32.013,65.516 32.523,65.928 33.047,66.317 C35.826,68.383 39.171,69.429 42.523,69.429 C46.507,69.429 50.49,67.97 53.513,65.053 L72.448,46.778 C75.363,43.965 77,40.149 77,36.171 L77,0.041 L77,0 L76.957,0 Z" id="Fill-1" fill="#7D7384"></path>
          <path d="M58,31.9996 L10,31.9996 C6.686,31.9996 4,29.3136 4,25.9996 L4,25.9996 C4,22.6856 6.686,19.9996 10,19.9996 L58,19.9996 C61.314,19.9996 64,22.6856 64,25.9996 L64,25.9996 C64,29.3136 61.314,31.9996 58,31.9996" id="Fill-3" fill-opacity="0.8" fill="#E10A0A" style="mix-blend-mode: multiply;"></path>
        </g>
      </g>
    </g>
  </g>
</svg>