<?xml version="1.0" encoding="UTF-8"?>
<svg width="70px" height="77px" viewBox="0 0 70 77" version="1.1" xmlns="http://www.w3.org/2000/svg" xmlns:xlink="http://www.w3.org/1999/xlink">
  <title>Icons/Tied Hair</title>
  <g id="Icons" stroke="none" stroke-width="1" fill="none" fill-rule="evenodd">
    <g transform="translate(-821.000000, -795.000000)" id="Altre">
      <g transform="translate(818.000000, 738.000000)">
        <g id="Icons/Tied-Hair" transform="translate(2.999900, 56.999800)">
          <path d="M63.51,53.137 C63.193,53.955 62.852,54.762 62.468,55.545 L60.034,55.545 C59.62,55.545 59.209,55.533 58.8,55.511 C46.864,54.876 37.321,45.1 37.048,33.074 C41.58,32.522 45.55,30.135 48.202,26.686 C49.013,25.631 49.693,24.474 50.234,23.24 C51.128,21.206 51.639,18.966 51.639,16.604 C51.639,16.494 51.624,16.386 51.622,16.276 C60.025,21.781 65.591,31.274 65.591,42.048 C65.591,45.958 64.846,49.693 63.51,53.137 M35.034,72.843 C25.414,72.843 17.054,67.37 12.888,59.377 C22.931,58.315 31.35,51.739 35.034,42.728 C38.718,51.739 47.138,58.315 57.181,59.377 C53.015,67.37 44.654,72.843 35.034,72.843 M10.034,55.545 L7.136,55.572 C7.118,55.535 7.102,55.495 7.084,55.457 C5.113,51.401 4,46.853 4,42.048 C4,31.065 9.784,21.412 18.462,15.959 C18.454,16.175 18.43,16.387 18.43,16.604 C18.43,18.966 18.941,21.206 19.834,23.241 C20.376,24.474 21.055,25.631 21.866,26.686 C24.519,30.135 28.488,32.522 33.021,33.074 C32.748,45.1 23.204,54.876 11.269,55.511 C10.86,55.533 10.449,55.545 10.034,55.545 M22.783,13.694 C23.237,11.784 24.115,10.037 25.329,8.573 C27.643,5.781 31.134,4 35.034,4 C39.013,4 42.561,5.858 44.873,8.746 C46.067,10.239 46.931,12.006 47.349,13.938 C47.535,14.799 47.639,15.689 47.639,16.604 C47.639,18.293 47.299,19.903 46.694,21.377 C46.175,22.64 45.454,23.797 44.575,24.817 C42.262,27.5 38.847,29.208 35.034,29.208 C31.222,29.208 27.806,27.5 25.493,24.817 C24.614,23.797 23.894,22.64 23.375,21.377 C22.769,19.903 22.43,18.294 22.43,16.604 C22.43,15.601 22.56,14.63 22.783,13.694 M50.684,11.108 C48.408,4.65 42.261,5.68434189e-14 35.034,5.68434189e-14 C27.92,5.68434189e-14 21.854,4.506 19.495,10.807 C7.96,16.479 -2.84217094e-14,28.35 -2.84217094e-14,42.048 C-2.84217094e-14,46.858 0.982,51.442 2.754,55.613 C3.332,56.971 4,58.281 4.739,59.545 L8.533,59.545 C13.03,69.721 23.213,76.843 35.034,76.843 C46.856,76.843 57.039,69.721 61.535,59.545 L64.852,59.545 C65.603,58.26 66.281,56.928 66.865,55.545 C68.62,51.393 69.591,46.832 69.591,42.048 C69.591,28.585 61.899,16.891 50.684,11.108" id="Fill-1" fill="#7D7384"></path>
          <path d="M26.5343,63.9067 C26.5343,65.0117 25.6393,65.9067 24.5343,65.9067 C23.4293,65.9067 22.5343,65.0117 22.5343,63.9067 C22.5343,62.8017 23.4293,61.9067 24.5343,61.9067 C25.6393,61.9067 26.5343,62.8017 26.5343,63.9067" id="Fill-4" fill="#7D7384"></path>
          <path d="M47.4284,63.9067 C47.4284,65.0117 46.5334,65.9067 45.4284,65.9067 C44.3234,65.9067 43.4284,65.0117 43.4284,63.9067 C43.4284,62.8017 44.3234,61.9067 45.4284,61.9067 C46.5334,61.9067 47.4284,62.8017 47.4284,63.9067" id="Fill-6" fill="#7D7384"></path>
          <path d="M51.7002,38.4067 C51.7002,47.6107 44.2382,55.0727 35.0342,55.0727 C25.8302,55.0727 18.3682,47.6107 18.3682,38.4067 C18.3682,29.2027 25.8302,21.7407 35.0342,21.7407 C44.2382,21.7407 51.7002,29.2027 51.7002,38.4067" id="Fill-8" fill-opacity="0.8" fill="#E10A0A" style="mix-blend-mode: multiply;"></path>
        </g>
      </g>
    </g>
  </g>
</svg>