<?xml version="1.0" encoding="UTF-8"?>
<svg width="64px" height="77px" viewBox="0 0 64 77" version="1.1" xmlns="http://www.w3.org/2000/svg" xmlns:xlink="http://www.w3.org/1999/xlink">
  <title>Icons/Flip Flops</title>
  <g id="Icons" stroke="none" stroke-width="1" fill="none" fill-rule="evenodd">
    <g transform="translate(-473.000000, -361.000000)" id="Attività-in-acqua">
      <g transform="translate(100.000000, 304.000000)">
        <g id="ciabatte" transform="translate(368.000000, 57.000000)">
          <g id="Icons/Flip-Flops" transform="translate(5.000000, 0.000000)">
            <path d="M22.0858753,71.1677 C20.9218753,72.3837 19.3408753,72.9997 17.3848753,72.9997 L13.3848753,72.9997 C11.4288753,72.9997 9.84787532,72.3837 8.68387532,71.1677 C7.32387532,69.7457 6.63487532,67.5867 6.74687532,65.0567 C6.86887532,60.7887 6.50487532,56.5117 6.01287532,52.3017 C6.01287532,52.3017 5.95087532,50.5997 5.95087532,49.7137 C5.95087532,42.4867 10.1928753,36.6077 15.4068753,36.6077 C20.6208753,36.6077 24.8628753,42.4867 24.8628753,49.7137 C24.8628753,50.5997 24.7568753,52.3017 24.7568753,52.3017 C24.2648753,56.5137 23.9018753,60.7977 24.0248753,65.0877 C24.1348753,67.5867 23.4458753,69.7457 22.0858753,71.1677 M4.02087532,29.9197 C4.21887532,25.4387 9.30487532,21.8317 13.3848753,21.8317 L17.3848753,21.8317 C21.4648753,21.8317 26.5508753,25.4387 26.7488753,29.8887 C26.8408753,33.1267 26.6288753,36.4207 26.2968753,39.7047 C24.5668753,36.6727 22.0828753,34.3877 19.1898753,33.3077 L19.1898753,31.0407 C19.1898753,29.9367 18.2938753,29.0407 17.1898753,29.0407 C16.0848753,29.0407 15.1898753,29.9367 15.1898753,31.0407 L15.1898753,32.6217 C10.7778753,32.7117 6.88387532,35.5127 4.47987532,39.7697 C4.14387532,36.4677 3.92787532,33.1607 4.02087532,29.9197 M30.7458753,29.7427 C30.4438753,22.9257 23.4428753,17.8317 17.3848753,17.8317 L13.3848753,17.8317 C7.32687532,17.8317 0.325875322,22.9257 0.0238753225,29.7737 C-0.148124678,35.7947 0.639875322,41.8347 1.40187532,47.6757 C2.14387532,53.3607 2.91087532,59.2397 2.74987532,64.9117 C2.58987532,68.5107 3.67187532,71.7147 5.79387532,73.9327 C7.71387532,75.9387 10.3388753,76.9997 13.3848753,76.9997 L17.3848753,76.9997 C20.4318753,76.9997 23.0558753,75.9387 24.9758753,73.9337 C27.0978753,71.7147 28.1798753,68.5117 28.0218753,64.9417 C27.8588753,59.2397 28.6268753,53.3597 29.3678753,47.6737 C30.1298753,41.8327 30.9188753,35.7937 30.7458753,29.7427" id="Fill-1" fill="#7D7384"></path>
            <path d="M39.7799753,47.256 C39.9029753,42.966 39.5399753,38.682 39.0479753,34.47 C39.0479753,34.47 38.9419753,32.768 38.9419753,31.882 C38.9419753,24.655 43.1839753,18.776 48.3979753,18.776 C53.6119753,18.776 57.8539753,24.655 57.8539753,31.882 C57.8539753,32.768 57.7919753,34.47 57.7919753,34.47 C57.2999753,38.68 56.9359753,42.957 57.0579753,47.225 C57.1699753,49.755 56.4809753,51.914 55.1209753,53.336 C53.9569753,54.552 52.3759753,55.168 50.4199753,55.168 L46.4199753,55.168 C44.4639753,55.168 42.8829753,54.552 41.7189753,53.336 C40.3589753,51.914 39.6699753,49.755 39.7799753,47.256 M59.3249753,21.938 C56.9209753,17.681 53.0269753,14.88 48.6149753,14.79 L48.6149753,13.209 C48.6149753,12.105 47.7199753,11.209 46.6149753,11.209 C45.5109753,11.209 44.6149753,12.105 44.6149753,13.209 L44.6149753,15.476 C41.7219753,16.556 39.2379753,18.841 37.5079753,21.873 C37.1759753,18.589 36.9639753,15.295 37.0559753,12.057 C37.2539753,7.608 42.3399753,4 46.4199753,4 L50.4199753,4 C54.4999753,4 59.5859753,7.608 59.7839753,12.088 C59.8759753,15.329 59.6609753,18.637 59.3249753,21.938 M34.4369753,29.842 C35.1779753,35.528 35.9459753,41.408 35.7829753,47.11 C35.6249753,50.68 36.7069753,53.883 38.8289753,56.102 C40.7489753,58.108 43.3729753,59.168 46.4199753,59.168 L50.4199753,59.168 C53.4659753,59.168 56.0909753,58.108 58.0109753,56.101 C60.1329753,53.883 61.2149753,50.679 61.0549753,47.08 C60.8939753,41.408 61.6609753,35.529 62.4029753,29.844 C63.1649753,24.003 63.9529753,17.963 63.7809753,11.943 C63.4789753,5.094 56.4779753,5.68434189e-14 50.4199753,5.68434189e-14 L46.4199753,5.68434189e-14 C40.3619753,5.68434189e-14 33.3609753,5.094 33.0589753,11.911 C32.8859753,17.963 33.6749753,24.001 34.4369753,29.842" id="Fill-3" fill="#7D7384"></path>
            <path d="M31.9023753,3.9997 C25.8023753,3.9997 20.9023753,8.8997 20.9023753,14.9997 L20.9023753,61.9997 C20.9023753,68.0997 25.8023753,72.9997 31.9023753,72.9997 C38.0023753,72.9997 42.9023753,68.0997 42.9023753,61.9997 L42.9023753,14.9997 C42.9023753,8.8997 38.0023753,3.9997 31.9023753,3.9997" id="Fill-5" fill-opacity="0.8" fill="#E10A0A" style="mix-blend-mode: multiply;"></path>
          </g>
        </g>
      </g>
    </g>
  </g>
</svg>