<?xml version="1.0" encoding="UTF-8"?>
<svg width="69px" height="77px" viewBox="0 0 69 77" version="1.1" xmlns="http://www.w3.org/2000/svg" xmlns:xlink="http://www.w3.org/1999/xlink">
  <title>Icons/Swim Costume</title>
  <g id="Icons" stroke="none" stroke-width="1" fill="none" fill-rule="evenodd">
    <g transform="translate(-644.000000, -361.000000)" id="Attività-in-acqua">
      <g transform="translate(100.000000, 304.000000)">
        <g id="costume" transform="translate(541.000000, 57.000000)">
          <g id="Icons/Swim-Costume" transform="translate(3.000000, 0.000000)">
            <path d="M56.272,53.326 C45.863,54.278 37.55,62.591 36.598,73 L23.674,73 C22.722,62.591 14.409,54.278 4,53.326 L4,50.035 L56.272,50.035 L56.272,53.326 Z M0,46.035 L0,57.235 L2,57.235 C11.796,57.235 19.765,65.204 19.765,75 L19.765,77 L40.507,77 L40.507,75 C40.507,65.204 48.476,57.235 58.272,57.235 L60.272,57.235 L60.272,46.035 L0,46.035 Z" id="Fill-1" fill="#7D7384"></path>
            <path d="M7.8754,42.035 L7.8754,53.235 L9.8754,53.235 C19.6714,53.235 27.6404,61.204 27.6404,71 L27.6404,73 L48.3824,73 L48.3824,71 C48.3824,61.204 56.3514,53.235 66.1474,53.235 L68.1474,53.235 L68.1474,42.035 L7.8754,42.035 Z" id="Fill-4" fill-opacity="0.8" fill="#E10A0A" style="mix-blend-mode: multiply;"></path>
            <path d="M37.0804,35.054 C37.4024,27.527 41.1894,21.042 46.6534,17.703 C52.1174,21.042 55.9054,27.527 56.2264,35.054 L37.0804,35.054 Z M4.0454,35.054 C4.3664,27.527 8.1544,21.042 13.6184,17.703 C19.0824,21.042 22.8704,27.527 23.1914,35.054 L4.0454,35.054 Z M60.2484,35.054 C59.9594,27.133 56.3544,20.163 50.9584,15.854 C50.2214,15.265 49.4484,14.731 48.6484,14.245 L48.6484,0 L44.6484,0 L44.6484,14.252 C43.8524,14.735 43.0834,15.268 42.3484,15.854 C36.9524,20.163 33.3474,27.133 33.0584,35.054 L33.0584,35.054 L27.2134,35.054 L27.2134,35.054 C26.9244,27.133 23.3194,20.163 17.9234,15.854 C17.2004,15.276 16.4434,14.751 15.6604,14.273 L15.6604,0 L11.6604,0 L11.6604,14.224 C10.8474,14.715 10.0624,15.256 9.3134,15.854 C3.9174,20.163 0.3124,27.133 0.0234,35.054 C0.0104,35.396 0.0004,35.738 0.0004,36.083 C0.0004,37.089 0.0594,38.079 0.1634,39.054 L4.2054,39.054 L21.8014,39.054 L23.0314,39.054 L27.0734,39.054 L33.1994,39.054 L37.2414,39.054 L38.1774,39.054 L56.0664,39.054 L60.1084,39.054 C60.2124,38.079 60.2724,37.089 60.2724,36.083 C60.2724,35.738 60.2614,35.396 60.2484,35.054 L60.2484,35.054 Z" id="Fill-7" fill="#7D7384"></path>
          </g>
        </g>
      </g>
    </g>
  </g>
</svg>