<?xml version="1.0" encoding="UTF-8"?>
<svg width="68px" height="77px" viewBox="0 0 68 77" version="1.1" xmlns="http://www.w3.org/2000/svg" xmlns:xlink="http://www.w3.org/1999/xlink">
  <title>Icons/Boxe</title>
  <g id="Icons" stroke="none" stroke-width="1" fill="none" fill-rule="evenodd">
    <g transform="translate(-998.000000, -578.000000)" id="Attività-in-palestra">
      <g transform="translate(94.000000, 521.000000)">
        <g id="guantoni" transform="translate(898.500000, 57.000000)">
          <g id="Icons/Boxe" transform="translate(6.000000, 0.000000)">
            <path d="M63.1759,39.105 C63.1759,45.645 60.2909,51.804 55.2609,56.002 L53.9779,57.073 L17.8239,57.073 L17.8239,52.955 L17.8239,51.799 L17.2069,50.821 C14.9939,47.313 13.8239,43.261 13.8239,39.105 L13.8239,27.85 C18.4279,35.148 26.5569,40 35.8239,40 L35.8239,40 C37.8579,40 39.8309,39.748 41.7299,39.306 C43.1089,38.986 44.4439,38.555 45.7299,38.024 L45.7299,33.619 L45.7299,27.994 C45.7299,22.701 49.9989,18.391 55.2729,18.313 C55.9869,18.322 56.6769,18.425 57.3339,18.61 C58.7219,19 59.9569,19.752 60.9299,20.762 C62.3179,22.202 63.1759,24.155 63.1759,26.307 L63.1759,39.105 Z M17.8239,73 L53.8239,73 L53.8239,61.073 L17.8239,61.073 L17.8239,73 Z M13.8239,12.001 C13.8239,7.589 17.4139,4 21.8259,4 L49.8229,4 C54.2349,4 57.8239,7.589 57.8239,12.001 L57.8239,14 C57.8239,14.203 57.8139,14.403 57.8089,14.605 C57.0369,14.432 56.2379,14.338 55.4179,14.32 L55.4179,14.305 C55.3739,14.305 55.3309,14.312 55.2859,14.312 C51.5719,14.348 48.2069,15.865 45.7589,18.306 C43.2719,20.785 41.7299,24.213 41.7299,27.994 L41.7299,35.187 C39.8489,35.712 37.8699,36 35.8239,36 C26.4269,36 18.3909,30.075 15.2449,21.767 C14.6899,20.302 14.2869,18.764 14.0559,17.17 C13.9049,16.134 13.8239,15.076 13.8239,14 L13.8239,12.001 Z M61.7209,16.256 C61.7849,15.511 61.8239,14.76 61.8239,14 L61.8239,12.001 C61.8239,5.373 56.4509,0 49.8229,0 L21.8259,0 C15.1969,0 9.8239,5.373 9.8239,12.001 L9.8239,14 C9.8239,16.563 10.2009,19.037 10.8919,21.376 C10.2119,22.882 9.8239,24.548 9.8239,26.307 L9.8239,39.105 C9.8239,44.198 11.2939,48.944 13.8239,52.955 L13.8239,77 L57.8239,77 L57.8239,61.073 L57.8249,61.073 L57.8249,59.072 C63.5379,54.303 67.1759,47.13 67.1759,39.105 L67.1759,26.307 C67.1759,22.096 65.0019,18.397 61.7209,16.256 L61.7209,16.256 Z" id="Fill-1" fill="#7D7384"></path>
            <path d="M26,58.4997 L26,58.4997 C11.641,58.4997 0,46.8587 0,32.4997 L0,30.5017 C0,23.8727 5.373,18.4997 12.002,18.4997 L39.998,18.4997 C46.627,18.4997 52,23.8727 52,30.5017 L52,32.4997 C52,46.8587 40.359,58.4997 26,58.4997" id="Fill-4" fill-opacity="0.8" fill="#E10A0A" style="mix-blend-mode: multiply;"></path>
          </g>
        </g>
      </g>
    </g>
  </g>
</svg>