<svg width="77" height="66" viewBox="0 0 77 66" xmlns="http://www.w3.org/2000/svg" xmlns:xlink="http://www.w3.org/1999/xlink">
    <defs>
        <path id="fiz8xl97da" d="M0 0h65.971v65.972H0z"/>
    </defs>
    <g fill="none" fill-rule="evenodd">
        <g transform="translate(10.446)">
            <mask id="xbwuxo7q0b" fill="#fff">
                <use xlink:href="#fiz8xl97da"/>
            </mask>
            <path d="M59.62 4.009c-.478 0-1.057.148-1.593.684L4.693 58.028c-1.013 1.012-.64 2.183-.5 2.517.137.335.701 1.427 2.134 1.427h53.334a2.313 2.313 0 0 0 2.311-2.311V6.327c0-1.433-1.092-1.997-1.426-2.135a2.493 2.493 0 0 0-.926-.183m.041 61.963H6.327c-2.602 0-4.836-1.493-5.83-3.897-.996-2.402-.472-5.038 1.368-6.876L55.2 1.864C57.04.024 59.677-.498 62.076.496c2.403.996 3.896 3.23 3.896 5.831v53.334a6.318 6.318 0 0 1-6.31 6.311" fill="#7D7384" mask="url(#xbwuxo7q0b)"/>
        </g>
        <path d="M49.94 65.972H5.597c-2.3 0-4.278-1.321-5.158-3.447-.88-2.126-.417-4.458 1.21-6.085l44.343-44.343c1.627-1.627 3.96-2.093 6.085-1.21 2.126.88 3.447 2.857 3.447 5.159v44.342a5.59 5.59 0 0 1-5.584 5.584" fill-opacity=".8" fill="#E10A0A" style="mix-blend-mode:multiply"/>
    </g>
</svg>
