<?xml version="1.0" encoding="UTF-8"?>
<svg width="77px" height="76px" viewBox="0 0 77 76" version="1.1" xmlns="http://www.w3.org/2000/svg" xmlns:xlink="http://www.w3.org/1999/xlink">
  <title>Icons/Feet</title>
  <defs>
    <polygon id="path-1" points="0 0 39.44415 0 39.44415 64.31182 0 64.31182"></polygon>
    <polygon id="path-3" points="-6.66133815e-16 0 39.4441111 0 39.4441111 64.3116 -6.66133815e-16 64.3116"></polygon>
  </defs>
  <g id="Icons" stroke="none" stroke-width="1" fill="none" fill-rule="evenodd">
    <g transform="translate(-466.000000, -578.000000)" id="Attività-in-palestra">
      <g transform="translate(94.000000, 521.000000)">
        <g id="piedi-nudi" transform="translate(363.000000, 57.000000)">
          <g id="Icons/Feet" transform="translate(9.000000, 0.000000)">
            <g id="Group-3" transform="translate(36.999788, 11.616180)">
              <mask id="mask-2" fill="white">
                <use xlink:href="#path-1"></use>
              </mask>
              <g id="Clip-2"></g>
              <path d="M35.78645,16.17812 C35.43245,16.74612 34.77045,17.00512 34.34945,16.73912 C33.92445,16.47512 33.86445,15.77112 34.21845,15.20212 C34.40945,14.89612 34.69545,14.66812 35.00345,14.57812 C35.10245,14.54912 35.22745,14.52712 35.36045,14.54112 C35.45845,14.55112 35.55945,14.58012 35.65645,14.64112 C36.08145,14.90512 36.14045,15.60912 35.78645,16.17812 M32.13345,26.89712 C30.98845,30.33112 30.10045,33.87812 29.49745,37.44312 C28.58545,42.82312 28.59145,51.42212 28.61445,53.92912 L28.61545,54.02212 C28.61545,57.80412 25.53745,60.88212 21.75545,60.88212 C17.97245,60.88212 14.89545,57.80412 14.89545,54.02212 C14.89545,52.92412 15.15345,51.86812 15.66045,50.88412 L15.74845,50.68212 C16.39045,48.91512 17.92245,44.38312 18.31745,40.47412 C18.45545,39.10112 18.45345,37.82012 18.31245,36.66612 C18.30345,36.58712 18.07045,34.70712 17.35545,32.83212 C16.43745,30.42112 14.62745,28.30312 13.03045,26.43612 C11.41445,24.54512 9.88744997,22.75912 9.74244997,21.27112 C9.61544997,19.97212 10.38845,18.25012 11.80845,16.66312 C13.60945,14.65212 16.89245,12.48512 20.70645,12.43412 C20.75345,12.43312 20.79845,12.43212 20.84445,12.43212 C27.75645,12.43212 32.34545,19.41312 32.47445,24.26912 C32.49745,25.15612 32.37645,26.06112 32.13345,26.89712 M3.91744997,8.68712003 C3.28644997,6.55112003 4.24144997,4.38012003 6.04544997,3.84712003 C6.31444997,3.76712003 6.59044997,3.72812003 6.86944997,3.72812003 C7.45644997,3.72812003 8.05244997,3.90312003 8.60544997,4.24512003 C9.48644997,4.79012003 10.14645,5.68112003 10.46345,6.75312003 L10.46345,6.75312003 C10.77945,7.82512003 10.71045,8.93112003 10.26645,9.86712003 C9.85644997,10.73312 9.17044997,11.34512 8.33444997,11.59312 C6.52744997,12.12412 4.54844997,10.82212 3.91744997,8.68712003 M16.90745,3.42912003 C16.95345,3.42912003 16.99945,3.43012003 17.04545,3.43412003 C17.63245,3.47512003 18.17745,3.78312003 18.57845,4.30112003 C19.02345,4.87512003 19.23845,5.62512003 19.18245,6.41212003 L19.18245,6.41312003 C19.12645,7.20012003 18.80945,7.91312003 18.28745,8.41912003 C17.81845,8.87512003 17.23345,9.10512003 16.64945,9.06212003 C15.36145,8.97212003 14.40445,7.63512003 14.51245,6.08412003 C14.61845,4.58712003 15.67845,3.42912003 16.90745,3.42912003 M23.24745,6.57212003 C23.50245,5.50512003 24.33445,4.76112003 25.19845,4.76112003 C25.31445,4.76112003 25.43045,4.77412003 25.54545,4.80212003 C26.52245,5.03512003 27.08345,6.20912003 26.79545,7.41912003 C26.50545,8.62712003 25.47045,9.42012003 24.49745,9.18812003 C23.52045,8.95512003 22.95945,7.78112003 23.24745,6.57212003 M30.16845,9.56112003 C30.51545,8.85312003 31.18745,8.41112003 31.81245,8.41112003 C31.99645,8.41112003 32.17645,8.44912003 32.34245,8.53112003 C32.78345,8.74712003 32.95845,9.16812003 33.02445,9.40012003 C33.15645,9.87012003 33.09845,10.39512 32.86245,10.87912 L32.86245,10.87912 C32.62545,11.36212 32.24645,11.73012 31.79345,11.91412 C31.56945,12.00512 31.12945,12.12412 30.68945,11.90912 C29.95945,11.55112 29.72045,10.47512 30.16845,9.56112003 M37.47045,11.72912 C37.12145,11.51212 36.73645,11.37212 36.34145,11.26812 C36.57545,10.34212 36.58145,9.38112003 36.32645,8.47112003 C35.94545,7.11912003 35.06645,6.04612003 33.85145,5.45012003 C32.71645,4.89412003 31.45345,4.85412003 30.29645,5.23112003 C29.78645,3.30012003 28.35045,1.73412003 26.38845,1.26612003 C24.63945,0.848120029 22.86745,1.40212003 21.56145,2.58712003 C21.47445,2.45512003 21.38645,2.32512003 21.28945,2.20012003 C20.28245,0.900120029 18.86145,0.124120029 17.28745,0.0121200289 C15.26745,-0.122879971 13.41545,0.880120029 12.26745,2.51012003 C11.77045,1.95512003 11.19945,1.47112003 10.56445,1.07812003 C8.83644997,0.00812002895 6.85744997,-0.276879971 4.99044997,0.275120029 C1.21644997,1.39012003 -0.867550033,5.63712003 0.345449967,9.74212003 C1.35844997,13.17212 4.35944997,15.43512 7.52044997,15.43512 C7.82744997,15.43512 8.13644997,15.41312 8.44544997,15.36912 C6.90544997,17.43012 6.13844997,19.65112 6.32844997,21.60312 C6.57844997,24.16712 8.44544997,26.35112 10.42245,28.66412 C11.90845,30.40212 13.44345,32.19812 14.15045,34.05312 C14.71145,35.52412 14.90645,37.06512 14.90845,37.08012 C15.01845,37.98312 15.01645,39.01012 14.90345,40.13012 C14.55545,43.58912 13.17645,47.70412 12.56045,49.41512 C11.83445,50.86112 11.46545,52.41012 11.46545,54.02212 C11.46545,59.69612 16.08145,64.31212 21.75545,64.31212 C27.42945,64.31212 32.04545,59.69612 32.04545,54.02212 L32.04445,53.89712 C32.02145,51.46112 32.01445,43.11612 32.87845,38.01612 C33.45345,34.62512 34.29745,31.24912 35.40645,27.92112 C35.76845,26.68112 35.93545,25.42212 35.90345,24.17912 L35.90345,24.17912 C35.86645,22.79612 35.61945,21.47912 35.23345,20.22812 C36.58545,20.06712 37.88945,19.28812 38.69745,17.99112 C40.05845,15.80712 39.50745,12.99812 37.47045,11.72912" id="Fill-1" fill="#7D7384" mask="url(#mask-2)"></path>
            </g>
            <g id="Group-6">
              <mask id="mask-4" fill="white">
                <use xlink:href="#path-3"></use>
              </mask>
              <g id="Clip-5"></g>
              <path d="M3.7880382,14.6406 C3.8840382,14.5796 3.9860382,14.5506 4.0840382,14.5406 C4.2170382,14.5266 4.3420382,14.5496 4.4410382,14.5786 C4.7490382,14.6676 5.0350382,14.8956 5.2260382,15.2016 C5.5800382,15.7706 5.5200382,16.4746 5.0950382,16.7396 C4.6740382,17.0046 4.0120382,16.7456 3.6580382,16.1776 C3.3030382,15.6086 3.3630382,14.9046 3.7880382,14.6406 M6.9690382,24.2686 C7.0990382,19.4126 11.6880382,12.4326 18.6000382,12.4326 C18.6460382,12.4326 18.6910382,12.4326 18.7380382,12.4336 C22.5520382,12.4846 25.8350382,14.6526 27.6350382,16.6636 C29.0560382,18.2496 29.8290382,19.9716 29.7020382,21.2706 C29.5560382,22.7586 28.0300382,24.5446 26.4140382,26.4356 C24.8170382,28.3036 23.0070382,30.4206 22.0890382,32.8316 C21.3740382,34.7066 21.1410382,36.5866 21.1310382,36.6656 C20.9910382,37.8196 20.9890382,39.1006 21.1270382,40.4736 C21.5220382,44.3836 23.0540382,48.9156 23.6950382,50.6826 L23.7830382,50.8836 C24.2910382,51.8676 24.5490382,52.9236 24.5490382,54.0216 C24.5490382,57.8046 21.4710382,60.8816 17.6890382,60.8816 C13.9060382,60.8816 10.8290382,57.8046 10.8290382,54.0216 L10.8300382,53.9286 C10.8530382,51.4216 10.8590382,42.8226 9.9470382,37.4426 C9.3430382,33.8786 8.4560382,30.3306 7.3110382,26.8966 C7.0670382,26.0606 6.9470382,25.1556 6.9690382,24.2686 M31.1100382,11.5926 C30.2740382,11.3456 29.5880382,10.7326 29.1780382,9.8676 C28.7340382,8.9306 28.6650382,7.8246 28.9810382,6.7526 L28.9810382,6.7526 C29.2980382,5.6806 29.9580382,4.7906 30.8390382,4.2446 C31.3920382,3.9026 31.9880382,3.7276 32.5750382,3.7276 C32.8530382,3.7276 33.1300382,3.7676 33.3990382,3.8466 C35.2030382,4.3796 36.1580382,6.5506 35.5270382,8.6866 C34.8960382,10.8216 32.9170382,12.1236 31.1100382,11.5926 M24.9310382,6.0836 C25.0400382,7.6346 24.0820382,8.9716 22.7950382,9.0626 C22.2110382,9.1046 21.6260382,8.8746 21.1560382,8.4186 C20.6350382,7.9126 20.3170382,7.2006 20.2620382,6.4136 L20.2620382,6.4126 C20.2060382,5.6256 20.4210382,4.8756 20.8660382,4.3006 C21.2670382,3.7826 21.8110382,3.4756 22.3980382,3.4336 C22.4440382,3.4306 22.4900382,3.4286 22.5360382,3.4286 C23.7660382,3.4286 24.8260382,4.5876 24.9310382,6.0836 M14.9460382,9.1876 C13.9740382,9.4206 12.9390382,8.6266 12.6490382,7.4186 C12.3610382,6.2086 12.9210382,5.0346 13.8980382,4.8016 C14.0140382,4.7736 14.1300382,4.7606 14.2450382,4.7606 C15.1100382,4.7606 15.9420382,5.5046 16.1970382,6.5716 C16.4850382,7.7806 15.9240382,8.9546 14.9460382,9.1876 M8.7550382,11.9086 C8.3150382,12.1236 7.8750382,12.0046 7.6510382,11.9136 C7.1980382,11.7296 6.8190382,11.3616 6.5820382,10.8786 L6.5820382,10.8786 C6.3460382,10.3956 6.2880382,9.8706 6.4200382,9.3996 C6.4850382,9.1676 6.6600382,8.7466 7.1020382,8.5306 C7.2680382,8.4496 7.4480382,8.4106 7.6320382,8.4106 C8.2560382,8.4106 8.9290382,8.8536 9.2760382,9.5606 C9.7240382,10.4756 9.4850382,11.5516 8.7550382,11.9086 M0.747038204,17.9906 C1.5550382,19.2876 2.8590382,20.0666 4.2110382,20.2276 C3.8250382,21.4796 3.5780382,22.7956 3.5410382,24.1786 L3.5410382,24.1796 C3.5080382,25.4226 3.6760382,26.6816 4.0380382,27.9206 C5.1460382,31.2496 5.9900382,34.6256 6.5660382,38.0156 C7.4300382,43.1166 7.4220382,51.4606 7.4000382,53.8966 L7.3990382,54.0216 C7.3990382,59.6956 12.0150382,64.3116 17.6890382,64.3116 C23.3630382,64.3116 27.9790382,59.6956 27.9790382,54.0216 C27.9790382,52.4096 27.6100382,50.8606 26.8840382,49.4146 C26.2680382,47.7036 24.8890382,43.5886 24.5400382,40.1306 C24.4270382,39.0096 24.4260382,37.9836 24.5360382,37.0796 C24.5380382,37.0646 24.7330382,35.5236 25.2940382,34.0526 C26.0010382,32.1976 27.5360382,30.4016 29.0210382,28.6646 C30.9980382,26.3516 32.8660382,24.1666 33.1160382,21.6036 C33.3060382,19.6506 32.5390382,17.4296 30.9990382,15.3686 C31.3080382,15.4126 31.6170382,15.4346 31.9240382,15.4346 C35.0850382,15.4346 38.0850382,13.1726 39.0990382,9.7426 C40.3110382,5.6376 38.2280382,1.3896 34.4540382,0.2746 C32.5870382,-0.2774 30.6080382,0.0076 28.8790382,1.0776 C28.2440382,1.4706 27.6730382,1.9546 27.1760382,2.5096 C26.0290382,0.8796 24.1770382,-0.1234 22.1570382,0.0116 C20.5830382,0.1236 19.1620382,0.9006 18.1540382,2.1996 C18.0580382,2.3246 17.9700382,2.4556 17.8830382,2.5866 C16.5770382,1.4016 14.8050382,0.8476 13.0550382,1.2666 C11.0940382,1.7346 9.6580382,3.2996 9.1480382,5.2306 C7.9910382,4.8546 6.7280382,4.8936 5.5930382,5.4496 C4.3780382,6.0456 3.4980382,7.1186 3.1180382,8.4716 C2.8630382,9.3806 2.8690382,10.3426 3.1030382,11.2676 C2.7080382,11.3716 2.3230382,11.5116 1.9740382,11.7286 C-0.0629617958,12.9986 -0.613961796,15.8076 0.747038204,17.9906" id="Fill-4" fill="#7D7384" mask="url(#mask-4)"></path>
            </g>
            <path d="M38.4999382,52.4924 C30.0229382,52.4924 22.0539382,49.1914 16.0599382,43.1964 C13.3259382,40.4634 13.3259382,36.0314 16.0599382,33.2974 C18.7939382,30.5644 23.2269382,30.5634 25.9589382,33.2974 C29.3099382,36.6474 33.7629382,38.4924 38.4999382,38.4924 C43.2369382,38.4924 47.6899382,36.6474 51.0399382,33.2974 C53.7739382,30.5644 58.2069382,30.5634 60.9389382,33.2974 C63.6739382,36.0314 63.6739382,40.4634 60.9399382,43.1964 C54.9459382,49.1914 46.9779382,52.4924 38.4999382,52.4924" id="Fill-7" fill-opacity="0.8" fill="#E10A0A" style="mix-blend-mode: multiply;"></path>
          </g>
        </g>
      </g>
    </g>
  </g>
</svg>