<?xml version="1.0" encoding="UTF-8"?>
<svg width="77px" height="77px" viewBox="0 0 77 77" version="1.1" xmlns="http://www.w3.org/2000/svg" xmlns:xlink="http://www.w3.org/1999/xlink">
  <title>Icons/Running</title>
  <g id="Icons" stroke="none" stroke-width="1" fill="none" fill-rule="evenodd">
    <g transform="translate(-286.000000, -795.000000)" id="Attività-all'aperto">
      <g transform="translate(75.000000, 738.000000)">
        <g id="Icons/Running" transform="translate(210.999948, 56.999764)">
          <path d="M72.9133517,64.5623355 C72.2773517,66.0473355 69.7313517,66.6133355 68.4583517,66.7543355 C64.6693517,67.1503355 60.9723517,64.7413355 57.5443517,62.0243355 C56.0653517,58.0683355 54.5003517,54.1313355 53.0073517,50.2703355 C49.8953517,42.2093355 46.5723517,33.9363355 44.2393517,25.5223355 L44.2393517,25.3803355 C43.6733517,23.2593355 42.3293517,18.8043355 38.9353517,18.2383355 C36.8143517,17.9553355 35.3293517,19.2993355 34.1273517,20.5013355 C33.1373517,21.4913355 32.1473517,22.3403355 30.8743517,22.4813355 C29.0363517,22.6223355 26.7733517,21.3503355 26.1373517,19.8653355 C25.7123517,18.8753355 26.1373517,17.7433355 26.8443517,16.0463355 C27.3003517,14.9263355 27.8503517,13.6603355 27.9443517,12.3193355 C29.6613517,10.5933355 31.3453517,8.92333555 32.4673517,7.85233555 C36.6383517,3.96333555 37.5583517,4.03424744 37.9823517,4.03424744 L38.2653517,4.03424744 C39.2553517,4.03424744 40.5283517,4.45833555 41.0223517,5.23633555 C41.4473517,5.94333555 41.1643517,6.79133555 40.4573517,8.20633555 C39.6793517,10.1153355 38.6893517,12.5193355 39.7503517,15.1353355 C41.0223517,18.2473355 44.9123517,20.5803355 48.5183517,20.2263355 C51.2053517,19.9443355 52.9733517,18.3173355 54.1753517,17.1153355 C54.5993517,16.6913355 55.3773517,16.0543355 55.5893517,15.9843355 C55.5893517,15.9843355 56.5083517,16.1963355 57.6403517,20.2973355 L57.6403517,20.4393355 C60.1143517,28.9953355 63.4383517,37.4093355 66.6203517,45.5413355 C68.6703517,50.8443355 70.8623517,56.2893355 72.7013517,61.6633355 C72.9133517,62.2993355 73.3373517,63.5723355 72.9133517,64.5623355 M55.4823517,67.7363355 C55.6943517,68.3723355 56.1183517,69.6453355 55.6943517,70.6353355 C55.0573517,72.1203355 52.5123517,72.6863355 51.2393517,72.8273355 C46.5013517,73.3223355 41.9053517,69.4333355 37.8043517,66.0393355 C36.1783517,64.6953355 35.0463517,63.5643355 34.0563517,62.5743355 C31.0863517,59.6043355 28.1163517,56.6343355 25.1473517,53.6643355 C23.0963517,51.6143355 21.1163517,49.6343355 19.0663517,47.5833355 C17.8643517,46.3813355 16.7323517,45.2503355 15.6713517,44.1893355 C9.94435169,38.4623355 6.47935169,34.9973355 4.92335169,30.7543355 C3.93335169,28.2093355 3.65135169,25.8043355 4.21635169,25.0973355 C4.71135169,24.4613355 12.1363517,16.8953355 15.2473517,13.9253355 C19.4193517,10.0363355 20.3383517,10.1072474 20.7633517,10.1072474 L21.0453517,10.1072474 C21.9343517,10.1072474 23.0453517,10.4513355 23.6233517,11.0833355 C23.6893517,11.1553355 23.7523517,11.2293355 23.8033517,11.3093355 C24.2273517,12.0163355 23.9453517,12.8643355 23.2373517,14.2783355 C22.7583517,15.4553355 22.2013517,16.8213355 22.0913517,18.3073355 C22.0223517,19.2333355 22.1233517,20.2043355 22.5303517,21.2083355 C23.8033517,24.3193355 27.6923517,26.6533355 31.2983517,26.2993355 C33.9863517,26.0163355 35.7533517,24.3903355 36.9553517,23.1883355 C37.3803517,22.7643355 38.1573517,22.1273355 38.3703517,22.0573355 C38.3703517,22.0573355 39.2893517,22.2693355 40.4203517,26.3703355 L40.4203517,26.5113355 C42.8953517,35.0673355 46.2183517,43.4823355 49.4003517,51.6143355 C50.0313517,53.2443355 50.6743517,54.8913355 51.3173517,56.5423355 C52.3913517,59.3023355 53.4533517,62.0783355 54.4553517,64.8503355 C54.8033517,65.8133355 55.1533517,66.7763355 55.4823517,67.7363355 M76.3783517,60.3903355 C74.4693517,54.9453355 72.2773517,49.5013355 70.2263517,44.1973355 C67.1153517,36.1363355 63.7913517,27.8633355 61.4583517,19.4493355 L61.4583517,19.3073355 C60.8923517,17.1863355 59.5493517,12.7313355 56.1553517,12.1653355 C54.0333517,11.8833355 52.5483517,13.2263355 51.3463517,14.4283355 C50.3563517,15.4183355 49.3663517,16.2673355 48.0943517,16.4083355 C46.2553517,16.5493355 43.9923517,15.2773355 43.3563517,13.7923355 C42.9323517,12.8023355 43.3563517,11.6703355 44.0633517,9.97333555 C44.8413517,8.06433555 45.9023517,5.73133555 44.4873517,3.32733555 C43.1443517,0.993335549 40.3863517,-0.0676644509 38.1943517,0.0033355491 L38.0533517,0.0033355491 C36.3563517,0.0033355491 34.7293517,0.357335549 29.8503517,4.95333555 C28.9553517,5.77033555 27.7243517,6.96733555 26.4063517,8.27833555 C24.9403517,6.73633555 22.7733517,6.01833555 20.9753517,6.07633555 L20.8333517,6.07633555 C19.1363517,6.07633555 17.5103517,6.43033555 12.6313517,11.0263355 C9.37835169,13.9963355 1.74135169,21.9153355 1.31735169,22.4813355 C-1.08664831,25.3093355 0.398351686,30.1883355 1.10535169,32.1683355 C3.08535169,37.2603355 6.76235169,40.9363355 12.8433517,47.0183355 C13.9043517,48.0783355 15.0353517,49.2103355 16.2373517,50.4123355 C18.2883517,52.4623355 20.2683517,54.4423355 22.3183517,56.4933355 C25.2883517,59.4633355 28.2583517,62.4323355 31.2283517,65.4023355 C32.2883517,66.4633355 33.4203517,67.5943355 35.1883517,69.2213355 C39.6423517,72.9683355 45.1583517,77.6353355 51.6633517,76.9283355 C52.7953517,76.7873355 55.9773517,76.2923355 58.0983517,74.1703355 C58.5933517,73.6753355 59.0173517,73.1103355 59.1583517,72.4033355 C59.8153517,71.0503355 59.8533517,69.6863355 59.7013517,68.5683355 C62.4973517,70.1723355 65.5603517,71.2163355 68.8833517,70.8553355 C70.0143517,70.7143355 73.1963517,70.2193355 75.3173517,68.0983355 C75.8123517,67.6033355 76.2363517,67.0373355 76.3783517,66.3303355 C77.5803517,63.8553355 76.7313517,61.3093355 76.3783517,60.3903355" id="Fill-1" fill="#7D7384"></path>
          <path d="M10.0000517,60.0002355 C6.70005169,60.0002355 4.00005169,57.3002355 4.00005169,54.0002355 C4.00005169,50.7002355 6.70005169,48.0002355 10.0000517,48.0002355 L58.0000517,48.0002355 C61.3000517,48.0002355 64.0000517,50.7002355 64.0000517,54.0002355 C64.0000517,57.3002355 61.3000517,60.0002355 58.0000517,60.0002355 L10.0000517,60.0002355 Z" id="Fill-4" fill-opacity="0.8" fill="#E10A0A" style="mix-blend-mode: multiply;"></path>
        </g>
      </g>
    </g>
  </g>
</svg>