<?xml version="1.0" encoding="UTF-8"?>
<svg width="77px" height="77px" viewBox="0 0 77 77" version="1.1" xmlns="http://www.w3.org/2000/svg" xmlns:xlink="http://www.w3.org/1999/xlink">
  <title>Icons/Sneakers</title>
  <g id="Icons" stroke="none" stroke-width="1" fill="none" fill-rule="evenodd">
    <g transform="translate(-1171.000000, -578.000000)" id="Attività-in-palestra">
      <g transform="translate(94.000000, 521.000000)">
        <g id="scarpe-da-ginnastica" transform="translate(1068.000000, 56.999975)">
          <g id="Icons/Sneakers" transform="translate(8.999932, 0.000000)">
            <path d="M64.0690685,4.00272458 C63.8050685,4.00272458 63.5530685,4.03972458 63.3190685,4.12372458 C62.2820685,4.49372458 61.6730685,5.74872458 61.4140685,6.28472458 C58.9130685,11.4267246 56.5910685,16.7737246 54.3450685,21.9447246 C50.8670685,29.9557246 47.2690685,38.2397246 42.9060685,46.0227246 L42.8500685,46.1237246 C40.7940685,49.7837246 41.2280685,50.5817246 41.2840685,50.6607246 C41.4980685,50.8067246 42.5000685,50.8227246 43.0980685,50.8327246 C44.8410685,50.8587246 47.2280685,50.8957246 49.3140685,52.6397246 C52.0720685,54.9447246 53.2530685,59.3567246 51.9480685,62.4757246 C50.8510685,65.0967246 48.4880685,66.0677246 46.5890685,66.8477246 C44.9320685,67.5277246 44.1320685,67.9257246 43.9370685,68.6327246 C43.6940685,69.5207246 44.2890685,70.7737246 45.0050685,71.4707246 L45.1670685,71.6327246 C45.4970685,71.9667246 46.1120685,72.5897246 51.7720685,72.7877246 C56.1160685,72.9407246 66.7110685,72.7417246 67.4740685,72.6967246 C68.4110685,72.6277246 69.9560685,70.7437246 71.0580685,68.3137246 C72.9460685,64.1467246 72.9270685,59.2627246 72.8970685,51.1717246 C72.8910685,49.6857246 72.8850685,48.0937246 72.8900685,46.3787246 C72.8980685,43.5547246 72.9010685,40.7297246 72.9040685,37.9057246 C72.9080685,33.6637246 72.9120685,29.4217246 72.9340685,25.1807246 C72.9420685,23.7727246 72.9510685,22.2007246 72.7690685,20.0867246 C72.3160685,14.7987246 71.8020685,8.80472458 68.0420685,5.75072458 C67.2150685,5.07872458 65.4870685,4.00272458 64.0690685,4.00272458 M56.2850685,76.8417246 C54.4780685,76.8417246 52.8200685,76.8267246 51.6330685,76.7857246 C44.9030685,76.5507246 43.5280685,75.6667246 42.3200685,74.4427246 L42.2120685,74.3347246 C40.6480685,72.8107246 39.3810685,70.1287246 40.0800685,67.5757246 C40.8150685,64.8947246 43.1730685,63.9257246 45.0690685,63.1477246 C46.7680685,62.4497246 47.8320685,61.9527246 48.2580685,60.9317246 C48.8890685,59.4227246 48.1560685,56.8847246 46.7490685,55.7087246 C45.7510685,54.8737246 44.4320685,54.8527246 43.0360685,54.8317246 C41.3740685,54.8057246 39.3040685,54.7737246 38.0270685,52.9827246 C36.0040685,50.1447246 38.2720685,46.1047246 39.3630685,44.1647246 L39.4180685,44.0667246 C43.6810685,36.4607246 47.2380685,28.2707246 50.6760685,20.3517246 C52.9390685,15.1417246 55.2780685,9.75372458 57.8100685,4.54672458 C58.2470685,3.64672458 59.3960685,1.27772458 61.9730685,0.356724579 C65.6890685,-0.971275421 69.4900685,1.77272458 70.5640685,2.64672458 C75.6420685,6.77072458 76.2580685,13.9647246 76.7550685,19.7447246 C76.9510685,22.0397246 76.9420685,23.7087246 76.9340685,25.1807246 C76.9120685,29.4377246 76.9080685,33.6737246 76.9040685,37.9097246 C76.9010685,40.7367246 76.8980685,43.5637246 76.8900685,46.3907246 C76.8850685,48.0957246 76.8910685,49.6787246 76.8970685,51.1577246 C76.9290685,59.7927246 76.9490685,65.0037246 74.7010685,69.9637246 L74.7010685,69.9647246 C73.8250685,71.8977246 71.3940685,76.4207246 67.7550685,76.6867246 C67.2320685,76.7247246 61.2110685,76.8417246 56.2850685,76.8417246" id="Fill-1" fill="#7D7384"></path>
            <path d="M5.88016847,8.53102458 L5.88016847,8.53102458 C3.99216847,12.6970246 4.01016847,17.5770246 4.04116847,25.6640246 C4.04616847,27.1530246 4.05216847,28.7470246 4.04716847,30.4650246 C4.03916847,33.3210246 4.03616847,36.1760246 4.03316847,39.0310246 C4.02916847,43.2420246 4.02616847,47.4530246 4.00316847,51.6640246 C3.99616847,53.0810246 3.98816847,54.6500246 4.16916847,56.7580246 C4.62216847,62.0480246 5.13616847,68.0410246 8.89516847,71.0940246 C9.87516847,71.8910246 12.1231685,73.2580246 13.6181685,72.7210246 C14.6521685,72.3510246 15.2631685,71.0980246 15.5231685,70.5630246 C18.0241685,65.4190246 20.3451685,60.0730246 22.5901685,54.9030246 C26.0691685,46.8910246 29.6671685,38.6060246 34.0311685,30.8220246 L34.0881685,30.7200246 C36.1431685,27.0600246 35.7091685,26.2630246 35.6531685,26.1840246 C35.4401685,26.0370246 34.4381685,26.0220246 33.8391685,26.0120246 C32.0961685,25.9860246 29.7091685,25.9480246 27.6231685,24.2050246 C24.8651685,21.9000246 23.6851685,17.4880246 24.9891685,14.3690246 C26.0861685,11.7480246 28.4501685,10.7770246 30.3491685,9.99702458 C32.0051685,9.31702458 32.8061685,8.91902458 33.0001685,8.21202458 C33.2431685,7.32402458 32.6491685,6.07102458 31.9321685,5.37202458 L31.7721685,5.21202458 C31.4411685,4.87802458 30.8251685,4.25402458 25.1651685,4.05702458 C20.8441685,3.90802458 10.2311685,4.10402458 9.46316847,4.14802458 C8.52716847,4.21702458 6.98216847,6.10102458 5.88016847,8.53102458 M12.8631685,76.8450246 C9.90516847,76.8450246 7.24516847,74.9070246 6.37416847,74.1990246 C1.29616847,70.0750246 0.679168472,62.8820246 0.183168472,57.1020246 C-0.0128315279,54.8110246 -0.00483152786,53.1460246 0.00316847214,51.6770246 C0.0261684721,47.4380246 0.0291684721,43.2330246 0.0331684721,39.0280246 C0.0361684721,36.1700246 0.0391684721,33.3110246 0.0471684721,30.4530246 C0.0521684721,28.7450246 0.0461684721,27.1590246 0.0411684721,25.6790246 C0.00816847214,17.0490246 -0.0118315279,11.8390246 2.23616847,6.88002458 C3.11316847,4.94702458 5.54316847,0.424024579 9.18316847,0.158024579 C9.90616847,0.106024579 20.9091685,-0.0929754215 25.3041685,0.0590245785 C32.0321685,0.294024579 33.4071685,1.17702458 34.6161685,2.40002458 L34.7251685,2.50902458 C36.2901685,4.03502458 37.5571685,6.71802458 36.8581685,9.26902458 C36.1231685,11.9500246 33.7641685,12.9190246 31.8691685,13.6970246 C30.1691685,14.3950246 29.1071685,14.8930246 28.6801685,15.9130246 C28.0481685,17.4220246 28.7811685,19.9600246 30.1881685,21.1350246 C31.1871685,21.9710246 32.5051685,21.9910246 33.9011685,22.0130246 C35.5641685,22.0390246 37.6331685,22.0710246 38.9101685,23.8620246 C40.9331685,26.6990246 38.6661685,30.7380246 37.5751685,32.6790246 L37.5201685,32.7780246 C33.2551685,40.3850246 29.6991685,48.5750246 26.2591685,56.4960246 C23.9981685,61.7050246 21.6591685,67.0910246 19.1281685,72.2980246 C18.6861685,73.2030246 17.5351685,75.5690246 14.9641685,76.4880246 C14.2601685,76.7390246 13.5531685,76.8450246 12.8631685,76.8450246" id="Fill-4" fill="#7D7384"></path>
            <path d="M63.8771685,38.4671246 C63.8771685,32.3671246 58.9771685,27.4671246 52.8771685,27.4671246 L24.1541685,27.4671246 C18.0531685,27.4671246 13.1541685,32.3671246 13.1541685,38.4671246 C13.1541685,44.5671246 18.0531685,49.4671246 24.1541685,49.4671246 L52.8771685,49.4671246 C58.9771685,49.4671246 63.8771685,44.5671246 63.8771685,38.4671246" id="Fill-7" fill-opacity="0.8" fill="#E10A0A" style="mix-blend-mode: multiply;"></path>
          </g>
        </g>
      </g>
    </g>
  </g>
</svg>